<svg width="14" height="7" viewBox="0 0 14 7" fill="none" xmlns="http://www.w3.org/2000/svg">
<path d="M13.4531 2.99228L1.87147 2.99228L3.79002 1.2194C4.00409 1.02156 4.00491 0.700037 3.79185 0.501254C3.57879 0.302445 3.23251 0.301709 3.01843 0.499527L0.160901 3.14015C0.16071 3.1403 0.160573 3.14048 0.160409 3.14063C-0.0531185 3.33848 -0.0538021 3.66104 0.160354 3.85954C0.160546 3.8597 0.160682 3.85987 0.160846 3.86003L3.01838 6.50065C3.23242 6.69844 3.57871 6.69776 3.7918 6.49892C4.00486 6.30014 4.00404 5.97862 3.78996 5.78077L1.87147 4.0079L13.4531 4.0079C13.7552 4.0079 14 3.78055 14 3.50009C14 3.21962 13.7552 2.99228 13.4531 2.99228Z" fill="#1B1B1B"/>
</svg>
