<svg width="14" height="14" viewBox="0 0 14 14" fill="none" xmlns="http://www.w3.org/2000/svg">
<path fill-rule="evenodd" clip-rule="evenodd" d="M7.14648 13.7754C6.5942 13.7754 6.14648 13.3277 6.14648 12.7754L6.14648 1.27539C6.14648 0.723106 6.5942 0.275391 7.14648 0.275391C7.69877 0.275391 8.14648 0.723105 8.14648 1.27539L8.14648 12.7754C8.14648 13.3277 7.69877 13.7754 7.14648 13.7754Z" fill="#A6A6A6"/>
<path fill-rule="evenodd" clip-rule="evenodd" d="M13.8965 7.02539C13.8965 7.57768 13.4488 8.02539 12.8965 8.02539L1.39648 8.02539C0.844199 8.02539 0.396485 7.57768 0.396485 7.02539C0.396484 6.47311 0.844199 6.02539 1.39648 6.02539L12.8965 6.02539C13.4488 6.02539 13.8965 6.47311 13.8965 7.02539Z" fill="#A6A6A6"/>
</svg>
