<svg width="39" height="39" viewBox="0 0 39 39" fill="none" xmlns="http://www.w3.org/2000/svg">
<path d="M36.2698 21.8567L35.2599 17.8169C35.536 17.7582 35.7432 17.5133 35.7432 17.2198V16.5684C35.7432 15.1542 34.5926 14.0037 33.1785 14.0037H28.5783V12.6603C28.5783 11.9644 28.0122 11.3983 27.3163 11.3983H18.7627L23.9606 9.31908C24.2738 9.19385 24.426 8.83843 24.3008 8.52529C24.1756 8.21222 23.8204 8.0598 23.507 8.18511L19.251 9.88747C20.5479 9.05537 21.831 8.13956 22.3195 7.4991C23.2705 6.25224 23.0297 4.46419 21.7828 3.51318C20.5359 2.5621 18.7479 2.80303 17.7969 4.04989C17.102 4.96106 16.1852 7.52127 15.5918 9.3254C14.9985 7.52142 14.0817 4.96106 13.3868 4.04989C12.4359 2.80303 10.6478 2.56225 9.4009 3.51318C8.15405 4.46411 7.91327 6.25217 8.8642 7.4991C9.35269 8.13963 10.6357 9.05537 11.9327 9.88747L7.67668 8.18511C7.36338 8.05965 7.00812 8.21215 6.88289 8.52529C6.75759 8.83843 6.90993 9.19385 7.22307 9.31908L12.421 11.3983H3.8674C3.17149 11.3983 2.60538 11.9644 2.60538 12.6603V23.7334C2.60538 24.0706 2.87876 24.3441 3.21605 24.3441C3.55327 24.3441 3.82672 24.0707 3.82672 23.7334V12.6603C3.82672 12.6378 3.84493 12.6196 3.8674 12.6196H27.3162C27.3387 12.6196 27.3569 12.6378 27.3569 12.6603V23.7335C27.3569 24.0708 27.6303 24.3442 27.9676 24.3442C28.3048 24.3442 28.5782 24.0708 28.5782 23.7335V23.0413H35.7815C35.7822 23.0413 35.7827 23.0414 35.7834 23.0414C35.7841 23.0414 35.7847 23.0414 35.7854 23.0414C36.6717 23.042 37.4243 23.6238 37.6827 24.4255H35.7839C35.4467 24.4255 35.1732 24.6989 35.1732 25.0362V26.3388C35.1732 27.3939 36.0315 28.2522 37.0866 28.2522H37.7787V30.939H36.1819C35.6574 29.4246 34.2177 28.3336 32.5271 28.3336C30.8364 28.3336 29.3966 29.4245 28.8722 30.939H28.5782V26.3388C28.5782 26.0016 28.3048 25.7281 27.9675 25.7281C27.6303 25.7281 27.3568 26.0015 27.3568 26.3388V30.9389H14.6872C14.1627 29.4245 12.723 28.3335 11.0324 28.3335C9.34172 28.3335 7.90192 29.4244 7.37747 30.9389H3.8674C3.84493 30.9389 3.82672 30.9207 3.82672 30.8983V29.5548H6.47286C6.81007 29.5548 7.08353 29.2814 7.08353 28.9442C7.08353 28.6069 6.81015 28.3335 6.47286 28.3335H0.61067C0.273457 28.3335 0 28.6069 0 28.9442C0 29.2814 0.273381 29.5548 0.61067 29.5548H2.60546V30.8983C2.60546 31.5942 3.17157 32.1603 3.86747 32.1603H7.16602C7.16587 32.1738 7.16496 32.1873 7.16496 32.201C7.16496 34.3334 8.89992 36.0684 11.0324 36.0684C13.1648 36.0684 14.8998 34.3334 14.8998 32.201C14.8998 32.1872 14.8988 32.1738 14.8987 32.1603H28.6607C28.6605 32.1738 28.6596 32.1873 28.6596 32.201C28.6596 34.3334 30.3946 36.0684 32.527 36.0684C34.6594 36.0684 36.3944 34.3334 36.3944 32.201C36.3944 32.1872 36.3935 32.1738 36.3933 32.1603H38.3893C38.7265 32.1603 38.9999 31.8869 38.9999 31.5496V25.0361C39 23.4278 37.8135 22.0916 36.2698 21.8567ZM13.1701 9.22135C10.7613 7.7245 10.0468 7.03583 9.83531 6.75841C9.29274 6.04704 9.43015 5.02687 10.1416 4.4843C10.4349 4.26066 10.7805 4.15257 11.1237 4.15257C11.6129 4.15257 12.0969 4.3724 12.4158 4.79058C13.0065 5.5651 13.9316 8.17193 14.5424 10.0504C14.1302 9.80772 13.6564 9.52367 13.1701 9.22135ZM16.6415 10.0503C17.2522 8.17193 18.1774 5.56517 18.768 4.79051C19.3106 4.07914 20.3307 3.9418 21.0421 4.4843C21.7535 5.02687 21.8909 6.04704 21.3484 6.75841C21.1369 7.03575 20.4224 7.7245 18.0137 9.22127C17.5275 9.52352 17.0537 9.80764 16.6415 10.0503ZM28.5783 15.2249H33.1785C33.9193 15.2249 34.5219 15.8276 34.5219 16.5684V16.609H28.5783V15.2249ZM28.5783 21.8199V17.8304H34.0044L35.0018 21.8199H28.5783ZM11.0324 34.8471C9.57328 34.8471 8.38622 33.66 8.38622 32.201C8.38622 30.7419 9.57328 29.5548 11.0324 29.5548C12.4914 29.5548 13.6785 30.7419 13.6785 32.201C13.6785 33.66 12.4914 34.8471 11.0324 34.8471ZM32.5271 34.8471C31.0681 34.8471 29.881 33.66 29.881 32.201C29.881 30.7419 31.0681 29.5548 32.5271 29.5548C33.9862 29.5548 35.1733 30.7419 35.1733 32.201C35.1733 33.66 33.9862 34.8471 32.5271 34.8471ZM37.7787 27.0308H37.0866C36.705 27.0308 36.3945 26.7203 36.3945 26.3387V25.6466H37.7787V27.0308H37.7787Z" fill="#ECAF44"/>
<path d="M11.0325 30.939C10.3366 30.939 9.77051 31.5051 9.77051 32.201C9.77051 32.8969 10.3366 33.463 11.0325 33.463C11.7284 33.463 12.2945 32.8969 12.2945 32.201C12.2945 31.5051 11.7284 30.939 11.0325 30.939Z" fill="#ECAF44"/>
<path d="M32.5269 30.939C31.831 30.939 31.2649 31.5051 31.2649 32.201C31.2649 32.8969 31.831 33.463 32.5269 33.463C33.2228 33.463 33.7889 32.8969 33.7889 32.201C33.7889 31.5051 33.2228 30.939 32.5269 30.939Z" fill="#ECAF44"/>
<path d="M25.3625 28.3335H16.2435C15.9063 28.3335 15.6328 28.6069 15.6328 28.9442C15.6328 29.2815 15.9062 29.5548 16.2435 29.5548H25.3625C25.6997 29.5548 25.9731 29.2815 25.9731 28.9442C25.9731 28.6069 25.6997 28.3335 25.3625 28.3335Z" fill="#ECAF44"/>
<path d="M9.73019 25.728H1.91389C1.57668 25.728 1.30322 26.0014 1.30322 26.3387C1.30322 26.676 1.5766 26.9494 1.91389 26.9494H9.73019C10.0674 26.9494 10.3409 26.676 10.3409 26.3387C10.3409 26.0014 10.0674 25.728 9.73019 25.728Z" fill="#ECAF44"/>
<path d="M9.73005 16.6091H7.12459C6.78737 16.6091 6.51392 16.8825 6.51392 17.2198V22.4307C6.51392 22.7679 6.7873 23.0413 7.12459 23.0413C7.46188 23.0413 7.73526 22.7679 7.73526 22.4307V20.4359H9.0787C9.41591 20.4359 9.68937 20.1625 9.68937 19.8252C9.68937 19.4879 9.41599 19.2145 9.0787 19.2145H7.73526V17.8305H9.73005C10.0673 17.8305 10.3407 17.5571 10.3407 17.2198C10.3406 16.8826 10.0673 16.6091 9.73005 16.6091Z" fill="#ECAF44"/>
<path d="M14.5352 20.7222C15.1464 20.3219 15.5511 19.6316 15.5511 18.8482C15.5511 17.6135 14.5467 16.6091 13.3121 16.6091H11.6837C11.3465 16.6091 11.073 16.8825 11.073 17.2198V22.4307C11.073 22.7679 11.3464 23.0413 11.6837 23.0413C12.021 23.0413 12.2943 22.7679 12.2943 22.4307V21.0872H13.3109L14.4323 22.7693C14.55 22.9458 14.7436 23.0413 14.9409 23.0413C15.0574 23.0413 15.175 23.0081 15.2791 22.9386C15.5597 22.7516 15.6355 22.3725 15.4484 22.0919L14.5352 20.7222ZM13.3121 19.8659H12.2943V17.8305H13.3121C13.8733 17.8305 14.3298 18.287 14.3298 18.8482C14.3298 19.4094 13.8733 19.8659 13.3121 19.8659Z" fill="#ECAF44"/>
<path d="M19.4998 21.8201H17.505V20.4339C17.5185 20.4348 17.532 20.4359 17.5457 20.4359H18.8484C19.1856 20.4359 19.4591 20.1626 19.4591 19.8253C19.4591 19.488 19.1857 19.2146 18.8484 19.2146H17.5457C17.5319 19.2146 17.5185 19.2157 17.505 19.2167V17.8305H19.4998C19.837 17.8305 20.1105 17.5571 20.1105 17.2198C20.1105 16.8826 19.8371 16.6091 19.4998 16.6091H16.8944C16.5571 16.6091 16.2837 16.8825 16.2837 17.2198V22.4307C16.2837 22.7679 16.5571 23.0413 16.8944 23.0413H19.4998C19.837 23.0413 20.1105 22.7679 20.1105 22.4307C20.1105 22.0934 19.837 21.8201 19.4998 21.8201Z" fill="#ECAF44"/>
<path d="M24.0596 21.8201H22.0648V20.4359H22.7569C23.0942 20.4359 23.3676 20.1626 23.3676 19.8253C23.3676 19.488 23.0942 19.2146 22.7569 19.2146H22.0648V17.8305H24.0596C24.3968 17.8305 24.6703 17.5571 24.6703 17.2198C24.6703 16.8826 24.3969 16.6091 24.0596 16.6091H21.4542C21.117 16.6091 20.8435 16.8825 20.8435 17.2198V22.4307C20.8435 22.7679 21.1169 23.0413 21.4542 23.0413H24.0596C24.3968 23.0413 24.6703 22.7679 24.6703 22.4307C24.6703 22.0934 24.3968 21.8201 24.0596 21.8201Z" fill="#ECAF44"/>
</svg>
