<svg width="41" height="41" viewBox="0 0 41 41" fill="none" xmlns="http://www.w3.org/2000/svg">
<path d="M30.75 21.1406C29.1305 21.1406 27.6058 21.5474 26.2656 22.2579V18.7428C27.6058 19.4526 29.1305 19.8594 30.75 19.8594C36.0486 19.8594 40.3594 15.5486 40.3594 10.25C40.3594 4.95139 36.0486 0.640625 30.75 0.640625C26.994 0.640625 23.7435 2.8117 22.1637 5.95973L15.63 1.1448C14.7459 0.493922 13.4416 0.493281 12.5575 1.14544L0.640625 9.92648V13.4531H1.92188V25.9761C1.11148 27.3848 0.640625 29.012 0.640625 30.75C0.640625 36.0486 4.95139 40.3594 10.25 40.3594C15.5486 40.3594 19.8594 36.0486 19.8594 30.75C19.8594 30.0921 19.7921 29.4495 19.6659 28.8281H21.3347C21.2079 29.4495 21.1406 30.0921 21.1406 30.75C21.1406 36.0486 25.4514 40.3594 30.75 40.3594C36.0486 40.3594 40.3594 36.0486 40.3594 30.75C40.3594 25.4514 36.0486 21.1406 30.75 21.1406ZM30.75 1.92188C35.342 1.92188 39.0781 5.658 39.0781 10.25C39.0781 14.842 35.342 18.5781 30.75 18.5781C26.158 18.5781 22.4219 14.842 22.4219 10.25C22.4219 5.658 26.158 1.92188 30.75 1.92188ZM21.1733 10.8906C21.2021 11.325 21.2495 11.7548 21.3347 12.1719H14.7344V10.8906H21.1733ZM17.6441 4.22044L16.0156 6.17434V8.32812H17.2969V7.44278L18.9324 8.26022L19.5058 7.11414L17.6672 6.19484L18.6781 4.9815L21.655 7.175C21.393 7.94759 21.2303 8.76311 21.1739 9.60873H14.7344V2.1083C14.7786 2.13264 14.8292 2.14609 14.8702 2.1762L17.6441 4.22044ZM13.3173 2.17684C13.3583 2.14673 13.4083 2.13328 13.4531 2.10894V9.60938H3.23003L7.89634 6.17114L8.51263 7.6087L12.0463 8.31595L12.2981 7.05969L9.42552 6.48569L8.95594 5.39086L13.3173 2.17684ZM1.92188 10.8906H13.4531V12.1719H1.92188V10.8906ZM3.20312 13.4531H13.4531V21.7012C13.0367 21.5532 12.612 21.4238 12.1719 21.3341V14.7344H4.48438V23.0804C4.02312 23.4283 3.59455 23.8152 3.20312 24.2387V13.4531ZM10.8906 21.1733C10.6779 21.1592 10.4665 21.1406 10.25 21.1406C8.6305 21.1406 7.10581 21.5474 5.76562 22.2579V16.0156H10.8906V21.1733ZM10.25 39.0781C5.658 39.0781 1.92188 35.342 1.92188 30.75C1.92188 26.158 5.658 22.4219 10.25 22.4219C14.842 22.4219 18.5781 26.158 18.5781 30.75C18.5781 35.342 14.842 39.0781 10.25 39.0781ZM19.2988 27.5469C18.4891 25.2663 16.8484 23.3783 14.7344 22.2579V13.4531H21.7012C22.0311 14.3814 22.4981 15.243 23.0804 16.0156H16.0156V22.4219H23.7031V16.7613C24.0945 17.1848 24.5231 17.5717 24.9844 17.9196V23.0811C23.4911 24.206 22.3386 25.7531 21.7012 27.5469H19.2988ZM22.4219 17.2969V21.1406H17.2969V17.2969H22.4219ZM30.75 39.0781C26.158 39.0781 22.4219 35.342 22.4219 30.75C22.4219 26.158 26.158 22.4219 30.75 22.4219C35.342 22.4219 39.0781 26.158 39.0781 30.75C39.0781 35.342 35.342 39.0781 30.75 39.0781Z" fill="#ECAF44"/>
<path d="M14.0938 24.9844H8.96875C8.13466 24.9844 7.42997 25.5219 7.16475 26.2656H4.48438V29.9691L9.60938 31.2503V32.7897C8.86561 33.055 8.32812 33.7597 8.32812 34.5938V35.875C8.32812 36.9346 9.19041 37.7969 10.25 37.7969C11.3096 37.7969 12.1719 36.9346 12.1719 35.875V34.5938C12.1719 33.7597 11.6344 33.055 10.8906 32.7897V30.249L5.76562 28.9678V27.5469H7.16475C7.42997 28.2906 8.13466 28.8281 8.96875 28.8281H14.0938C15.1533 28.8281 16.0156 27.9658 16.0156 26.9062C16.0156 25.8467 15.1533 24.9844 14.0938 24.9844ZM10.8906 35.875C10.8906 36.2286 10.603 36.5156 10.25 36.5156C9.89702 36.5156 9.60938 36.2286 9.60938 35.875V34.5938C9.60938 34.2401 9.89702 33.9531 10.25 33.9531C10.603 33.9531 10.8906 34.2401 10.8906 34.5938V35.875ZM14.0938 27.5469H8.96875C8.61577 27.5469 8.32812 27.2599 8.32812 26.9062C8.32812 26.5526 8.61577 26.2656 8.96875 26.2656H14.0938C14.4467 26.2656 14.7344 26.5526 14.7344 26.9062C14.7344 27.2599 14.4467 27.5469 14.0938 27.5469Z" fill="#ECAF44"/>
<path d="M28.1875 12.1719C28.5193 12.1719 28.8512 12.127 29.1785 12.0367L32.5944 15.4525C32.957 15.8158 33.44 16.0156 33.9531 16.0156C34.4663 16.0156 34.9493 15.8151 35.3119 15.4525C35.6751 15.0899 35.875 14.6069 35.875 14.0938C35.875 13.5806 35.6751 13.0976 35.3119 12.735L31.8961 9.31917C31.9858 8.99181 32.0312 8.66061 32.0312 8.32812C32.0312 6.2083 30.3073 4.48438 28.1875 4.48438H27.9223L26.641 5.76562L28.1644 7.28903C28.0664 7.80217 27.6609 8.20705 27.149 8.30506L25.625 6.78166L24.3438 8.06291V8.32812C24.3438 10.448 26.0677 12.1719 28.1875 12.1719ZM26.641 9.60938H26.9062C28.3195 9.60938 29.4688 8.46009 29.4688 7.04688V6.78166L28.4681 5.78036C29.7493 5.92066 30.75 7.00972 30.75 8.32812C30.75 8.63755 30.6885 8.95145 30.5681 9.25895L30.4143 9.64909L34.406 13.6402C34.5284 13.7632 34.5938 13.9201 34.5938 14.0938C34.5938 14.2674 34.5284 14.4243 34.406 14.5467C34.16 14.792 33.7462 14.792 33.5002 14.5467L29.5091 10.5556L29.119 10.7087C28.8102 10.8291 28.4969 10.8906 28.1875 10.8906C26.8691 10.8906 25.7807 9.88997 25.6404 8.60872L26.641 9.60938Z" fill="#ECAF44"/>
<path d="M28.8198 26.8608L27.6872 27.3124L30.4848 30.1094L29.0049 31.5899C28.2932 31.2689 27.397 31.3855 26.8294 31.9537L25.5481 33.235C25.1843 33.5976 24.9844 34.0806 24.9844 34.5938C24.9844 35.1069 25.1843 35.5899 25.5475 35.9525C25.9101 36.3157 26.3931 36.5156 26.9062 36.5156C27.4194 36.5156 27.9024 36.3151 28.265 35.9525L29.5463 34.6713C29.9095 34.3087 30.1094 33.8256 30.1094 33.3125C30.1094 33.0217 30.0389 32.7443 29.9172 32.4893L31.3906 31.0159L34.187 33.8122L34.6399 32.6808C35.4592 30.6302 35.875 28.4719 35.875 26.2656V25.625H35.2344C33.0261 25.625 30.8679 26.0408 28.8198 26.8608ZM28.6404 33.7654L27.3592 35.0467C27.1132 35.292 26.6993 35.292 26.4533 35.0467C26.331 34.9243 26.2656 34.7674 26.2656 34.5938C26.2656 34.4201 26.331 34.2632 26.4533 34.1408L27.7346 32.8596C27.8576 32.7372 28.0139 32.6719 28.1875 32.6719C28.3611 32.6719 28.5174 32.7372 28.6404 32.8596C28.7628 32.9819 28.8281 33.1389 28.8281 33.3125C28.8281 33.4861 28.7628 33.6431 28.6404 33.7654ZM33.7065 31.5188L29.9812 27.7935C31.4662 27.2759 33.0082 26.9831 34.5809 26.9197C34.5169 28.4918 34.2241 30.0338 33.7065 31.5188Z" fill="#ECAF44"/>
</svg>
